<?xml version="1.0" encoding="UTF-8"?>
<!DOCTYPE svg PUBLIC "-//W3C//DTD SVG 1.1//EN" "http://www.w3.org/Graphics/SVG/1.1/DTD/svg11.dtd">
<svg xmlns="http://www.w3.org/2000/svg" version="1.1" width="512px" height="512px" style="shape-rendering:geometricPrecision; text-rendering:geometricPrecision; image-rendering:optimizeQuality; fill-rule:evenodd; clip-rule:evenodd" xmlns:xlink="http://www.w3.org/1999/xlink">
<g><path style="opacity:0.993" fill="#472b3c" d="M 240.5,-0.5 C 250.833,-0.5 261.167,-0.5 271.5,-0.5C 328.346,10.1883 362.846,43.855 375,100.5C 376.018,115.149 376.852,129.815 377.5,144.5C 385.706,148.238 390.539,154.571 392,163.5C 392.667,182.167 392.667,200.833 392,219.5C 387.799,235.861 377.299,242.527 360.5,239.5C 360.817,251.711 355.15,259.544 343.5,263C 336.167,263.333 328.833,263.667 321.5,264C 316.105,269.068 310.438,273.735 304.5,278C 305.75,290 307.917,301.834 311,313.5C 320.217,321.051 329.717,328.218 339.5,335C 354.167,335.333 368.833,335.667 383.5,336C 421.836,342.909 449.003,364.076 465,399.5C 468.749,408.828 471.082,418.495 472,428.5C 472.667,454.5 472.667,480.5 472,506.5C 471.003,508.323 469.836,509.99 468.5,511.5C 326.833,511.5 185.167,511.5 43.5,511.5C 42.1639,509.99 40.9973,508.323 40,506.5C 39.3333,480.5 39.3333,454.5 40,428.5C 45.0539,388.449 65.8872,359.949 102.5,343C 110.917,339.729 119.584,337.396 128.5,336C 143.167,335.667 157.833,335.333 172.5,335C 182.283,328.218 191.783,321.051 201,313.5C 204.083,301.834 206.25,290 207.5,278C 193.074,268.671 182.241,256.171 175,240.5C 161.908,239.676 148.742,239.176 135.5,239C 126.649,235.477 121.482,228.977 120,219.5C 119.333,200.833 119.333,182.167 120,163.5C 121.461,154.571 126.294,148.238 134.5,144.5C 135.333,132.514 135.833,120.514 136,108.5C 142.198,59.9867 167.698,26.1534 212.5,7C 221.747,3.65934 231.08,1.15934 240.5,-0.5 Z M 337.5,239.5 C 339.5,239.5 341.5,239.5 343.5,239.5C 343.379,245.731 340.379,247.731 334.5,245.5C 335.513,243.473 336.513,241.473 337.5,239.5 Z"/></g>
<g><path style="opacity:1" fill="#656565" d="M 242.5,15.5 C 289.971,12.6455 325.471,31.6455 349,72.5C 352.796,80.5555 355.796,88.8888 358,97.5C 359.337,112.8 359.837,128.133 359.5,143.5C 354.167,143.5 348.833,143.5 343.5,143.5C 343.666,139.486 343.499,135.486 343,131.5C 341.786,129.951 340.286,128.785 338.5,128C 308.383,130.971 281.049,123.638 256.5,106C 250.709,101.878 245.209,97.3782 240,92.5C 239.667,84.1667 239.333,75.8333 239,67.5C 234.255,62.2566 229.588,62.2566 225,67.5C 224.667,76.5 224.333,85.5 224,94.5C 217.883,105.617 209.383,114.451 198.5,121C 188.392,126.134 178.559,131.634 169,137.5C 168.505,139.473 168.338,141.473 168.5,143.5C 163.167,143.5 157.833,143.5 152.5,143.5C 146.783,103.145 158.45,68.9785 187.5,41C 203.622,27.6038 221.956,19.1038 242.5,15.5 Z"/></g>
<g><path style="opacity:1" fill="#fdd3c0" d="M 246.5,262.5 C 262.167,263.167 277.833,263.833 293.5,264.5C 286.226,267.979 278.559,270.146 270.5,271C 241.716,276.737 217.549,268.904 198,247.5C 189.988,236.469 185.322,224.136 184,210.5C 183.167,189.159 183.334,167.826 184.5,146.5C 204.132,138.033 220.799,125.7 234.5,109.5C 254.331,126.248 276.997,137.415 302.5,143C 311.12,144.252 319.787,144.752 328.5,144.5C 328.667,167.169 328.5,189.836 328,212.5C 326.426,224.896 321.926,236.063 314.5,246C 291.5,246.333 268.5,246.667 245.5,247C 240.391,250.366 239.224,254.866 242,260.5C 243.33,261.582 244.83,262.249 246.5,262.5 Z"/></g>
<g><path style="opacity:1" fill="#7b88c6" d="M 139.5,159.5 C 149.167,159.5 158.833,159.5 168.5,159.5C 168.236,180.853 168.569,202.186 169.5,223.5C 159.494,223.666 149.494,223.5 139.5,223C 138.299,222.097 137.465,220.931 137,219.5C 135.375,201.899 135.041,184.233 136,166.5C 136.653,163.861 137.82,161.527 139.5,159.5 Z"/></g>
<g><path style="opacity:1" fill="#7b88c6" d="M 343.5,159.5 C 353.172,159.334 362.839,159.5 372.5,160C 374.317,161.8 375.484,163.966 376,166.5C 376.667,183.167 376.667,199.833 376,216.5C 375.484,219.034 374.317,221.2 372.5,223C 362.506,223.5 352.506,223.666 342.5,223.5C 343.431,202.186 343.764,180.853 343.5,159.5 Z"/></g>
<g><path style="opacity:1" fill="#492d3e" d="M 204.5,159.5 C 209.694,160.346 214.86,161.346 220,162.5C 223.214,162.792 226.048,161.959 228.5,160C 237.217,159.051 240.717,162.884 239,171.5C 235.896,174.933 232.063,177.1 227.5,178C 217.415,180.34 208.582,178.173 201,171.5C 199.593,166.643 200.76,162.643 204.5,159.5 Z"/></g>
<g><path style="opacity:1" fill="#492d3e" d="M 276.5,159.5 C 281.694,160.346 286.86,161.346 292,162.5C 295.214,162.792 298.048,161.959 300.5,160C 309.217,159.051 312.717,162.884 311,171.5C 307.896,174.933 304.063,177.1 299.5,178C 289.415,180.34 280.582,178.173 273,171.5C 271.593,166.643 272.76,162.643 276.5,159.5 Z"/></g>
<g><path style="opacity:1" fill="#b4908b" d="M 246.5,262.5 C 262.837,262.333 279.17,262.5 295.5,263C 294.956,263.717 294.289,264.217 293.5,264.5C 277.833,263.833 262.167,263.167 246.5,262.5 Z"/></g>
<g><path style="opacity:1" fill="#9c7a7a" d="M 225.5,284.5 C 224.1,285.1 223.1,286.1 222.5,287.5C 222.5,286.167 222.5,284.833 222.5,283.5C 223.791,283.263 224.791,283.596 225.5,284.5 Z"/></g>
<g><path style="opacity:1" fill="#fdd3c0" d="M 225.5,284.5 C 245.815,288.463 266.149,288.463 286.5,284.5C 287.9,285.1 288.9,286.1 289.5,287.5C 290.414,295.729 291.747,303.896 293.5,312C 293.167,312.833 292.833,313.667 292.5,314.5C 280.29,318.903 267.957,322.903 255.5,326.5C 243.156,322.996 230.989,318.996 219,314.5C 220.157,305.546 221.324,296.546 222.5,287.5C 223.1,286.1 224.1,285.1 225.5,284.5 Z"/></g>
<g><path style="opacity:1" fill="#9d7b7b" d="M 286.5,284.5 C 287.209,283.596 288.209,283.263 289.5,283.5C 289.5,284.833 289.5,286.167 289.5,287.5C 288.9,286.1 287.9,285.1 286.5,284.5 Z"/></g>
<g><path style="opacity:1" fill="#676fd5" d="M 208.5,328.5 C 220.544,332.293 232.544,336.293 244.5,340.5C 241.755,346.325 238.755,351.992 235.5,357.5C 221.167,352 206.833,346.5 192.5,341C 198.084,337.055 203.417,332.888 208.5,328.5 Z"/></g>
<g><path style="opacity:1" fill="#676fd4" d="M 300.5,328.5 C 301.552,328.351 302.552,328.517 303.5,329C 308.833,333 314.167,337 319.5,341C 305.128,346.402 290.794,351.902 276.5,357.5C 273.245,351.992 270.245,346.325 267.5,340.5C 278.589,336.473 289.589,332.473 300.5,328.5 Z"/></g>
<g><path style="opacity:1" fill="#7c8ac9" d="M 246.5,371.5 C 247.499,412.663 247.832,453.997 247.5,495.5C 215.5,495.5 183.5,495.5 151.5,495.5C 151.667,478.163 151.5,460.83 151,443.5C 146.255,438.257 141.588,438.257 137,443.5C 136.5,460.83 136.333,478.163 136.5,495.5C 109.5,495.5 82.5,495.5 55.5,495.5C 55.3334,473.831 55.5,452.164 56,430.5C 63.0244,387.475 87.8577,361.308 130.5,352C 145.5,351.333 160.5,351.333 175.5,352C 195.833,359.667 216.167,367.333 236.5,375C 240.765,376.245 244.098,375.078 246.5,371.5 Z"/></g>
<g><path style="opacity:1" fill="#7c8ac9" d="M 264.5,495.5 C 264.168,453.997 264.501,412.663 265.5,371.5C 267.438,375.169 270.438,376.336 274.5,375C 294.833,367.333 315.167,359.667 335.5,352C 349.833,351.333 364.167,351.333 378.5,352C 422.799,359.965 448.632,386.132 456,430.5C 456.5,452.164 456.667,473.831 456.5,495.5C 429.5,495.5 402.5,495.5 375.5,495.5C 375.667,478.163 375.5,460.83 375,443.5C 370.255,438.257 365.588,438.257 361,443.5C 360.5,460.83 360.333,478.163 360.5,495.5C 328.5,495.5 296.5,495.5 264.5,495.5 Z"/></g>
<g><path style="opacity:1" fill="#615a82" d="M 247.5,495.5 C 247.832,453.997 247.499,412.663 246.5,371.5C 246.783,370.711 247.283,370.044 248,369.5C 248.831,411.669 248.665,453.669 247.5,495.5 Z"/></g>
<g><path style="opacity:1" fill="#615a82" d="M 265.5,371.5 C 264.501,412.663 264.168,453.997 264.5,495.5C 263.335,453.669 263.169,411.669 264,369.5C 264.717,370.044 265.217,370.711 265.5,371.5 Z"/></g>
</svg>
